<svg width="102" height="102" viewBox="0 0 102 102" fill="none" xmlns="http://www.w3.org/2000/svg">
<path d="M1 21C1 15.6957 3.10714 10.6086 6.85786 6.85786C10.6086 3.10714 15.6957 1 21 1H81C86.3043 1 91.3914 3.10714 95.1421 6.85786C98.8929 10.6086 101 15.6957 101 21V81C101 86.3043 98.8929 91.3914 95.1421 95.1421C91.3914 98.8929 86.3043 101 81 101H21C15.6957 101 10.6086 98.8929 6.85786 95.1421C3.10714 91.3914 1 86.3043 1 81V21Z" stroke="#A1ABC0" stroke-width="2" stroke-linecap="round" stroke-linejoin="round"/>
<path d="M33.5 46C40.4036 46 46 40.4036 46 33.5C46 26.5964 40.4036 21 33.5 21C26.5964 21 21 26.5964 21 33.5C21 40.4036 26.5964 46 33.5 46Z" stroke="#A1ABC0" stroke-width="2" stroke-linecap="round" stroke-linejoin="round"/>
<path d="M63.63 54.1053L21 101H81.665C86.793 101 91.7109 98.9632 95.3369 95.3372C98.9629 91.7112 101 86.7932 101 81.6653V81.0003C101 78.6703 100.125 77.7753 98.55 76.0503L78.4 54.0753C77.4609 53.0508 76.3185 52.2334 75.0459 51.6751C73.7732 51.1168 72.3981 50.83 71.0084 50.8328C69.6186 50.8356 68.2448 51.1281 66.9744 51.6915C65.704 52.255 64.565 53.077 63.63 54.1053V54.1053Z" stroke="#A1ABC0" stroke-width="2" stroke-linecap="round" stroke-linejoin="round"/>
</svg>
