<svg width="9" height="15" viewBox="0 0 9 15" fill="none" xmlns="http://www.w3.org/2000/svg">
<path d="M7.05964 1.71661e-05C6.74132 1.71661e-05 6.42134 0.124683 6.17801 0.374016L0.366646 6.29994C0.131659 6.54074 -9.53674e-07 6.86692 -9.53674e-07 7.20847C-9.53674e-07 7.54832 0.131659 7.8745 0.366646 8.11529L6.17801 14.0446C6.66632 14.5433 7.45628 14.5433 7.94459 14.0412C8.43123 13.5391 8.42957 12.728 7.94126 12.2293L3.01984 7.20847L7.94126 2.18766C8.42957 1.68899 8.43123 0.879515 7.94459 0.377433C7.70127 0.124684 7.37962 1.71661e-05 7.05964 1.71661e-05Z" fill="#1C1C1C"/>
</svg>
