<svg width="55" height="55" viewBox="0 0 55 55" fill="none" xmlns="http://www.w3.org/2000/svg">
<path d="M48 27C48 38.0457 39.0457 47 28 47C16.9543 47 8 38.0457 8 27C8 15.9543 16.9543 7 28 7C39.0457 7 48 15.9543 48 27Z" fill="#9F63FF"/>
<path d="M19.0377 38.959H18.993C18.6398 38.9578 18.3016 38.8164 18.0527 38.5659C17.8038 38.3154 17.6645 37.9763 17.6655 37.6232V37.5582C17.6743 37.4445 17.6947 37.3319 17.7263 37.2223L18.7221 33.6199C18.6963 33.5454 18.6632 33.4736 18.6233 33.4056C18.5988 33.365 18.5723 33.3256 18.5437 33.2876L18.5151 33.247C17.3052 31.414 16.6615 29.2655 16.664 27.0692C16.6546 24.0756 17.8262 21.2454 19.9633 19.1005C22.1727 16.8843 25.1339 15.6639 28.3022 15.6639C30.9894 15.6629 33.5968 16.577 35.6952 18.2555C37.7471 19.907 39.1729 22.2074 39.709 24.7391C39.8741 25.5073 39.9579 26.2907 39.9591 27.0765C39.9591 30.1412 38.7818 33.0193 36.6442 35.1819C34.4868 37.3632 31.591 38.5649 28.4888 38.5649C27.3917 38.5649 25.9976 38.2862 25.3284 38.0969C24.5048 37.866 23.7061 37.5592 23.6728 37.5462C23.5834 37.5118 23.4884 37.4941 23.3925 37.4942C23.2886 37.4935 23.1856 37.514 23.0899 37.5546L23.0478 37.5712L19.54 38.8389C19.3937 38.8994 19.2394 38.9383 19.0819 38.9543L19.0377 38.959ZM19.8941 32.3121C19.9529 32.3922 20.0085 32.4764 20.0595 32.5617L20.0662 32.5737C20.3668 33.0994 20.4624 33.5726 20.3512 33.9776L19.4916 37.0871L22.4638 36.0144C23.0417 35.778 23.6879 35.771 24.2708 35.9946C24.3025 36.0071 25.0289 36.2868 25.7787 36.4959C26.4791 36.6919 27.6678 36.9004 28.4909 36.9004C33.8987 36.9004 38.2972 32.4936 38.2972 27.0765C38.2965 26.4074 38.2256 25.7402 38.0856 25.086C37.1299 20.5897 33.0168 17.3279 28.3022 17.3279C25.5796 17.3279 23.0363 18.3746 21.1421 20.2751C19.319 22.1039 18.3196 24.5156 18.3279 27.0666C18.3258 28.9306 18.8704 30.7544 19.8941 32.3121Z" fill="white"/>
<path d="M23.3197 28.9754C24.2387 28.9754 24.9836 28.2305 24.9836 27.3115C24.9836 26.3925 24.2387 25.6476 23.3197 25.6476C22.4007 25.6476 21.6558 26.3925 21.6558 27.3115C21.6558 28.2305 22.4007 28.9754 23.3197 28.9754Z" fill="white"/>
<path d="M28.3115 28.9754C29.2305 28.9754 29.9754 28.2305 29.9754 27.3115C29.9754 26.3925 29.2305 25.6476 28.3115 25.6476C27.3925 25.6476 26.6476 26.3925 26.6476 27.3115C26.6476 28.2305 27.3925 28.9754 28.3115 28.9754Z" fill="white"/>
<path d="M33.3033 28.9754C34.2223 28.9754 34.9672 28.2305 34.9672 27.3115C34.9672 26.3925 34.2223 25.6476 33.3033 25.6476C32.3843 25.6476 31.6394 26.3925 31.6394 27.3115C31.6394 28.2305 32.3843 28.9754 33.3033 28.9754Z" fill="white"/>
</svg>
