<svg width="22" height="24" viewBox="0 0 22 24" fill="none" xmlns="http://www.w3.org/2000/svg">
<path d="M19.5556 9.49688H2.44444V19.0969C2.44444 20.5112 3.57108 21.6 4.88889 21.6H17.1111C18.4289 21.6 19.5556 20.5112 19.5556 19.0969V9.49688ZM13.1795 12.3973C13.65 11.9225 14.4239 11.912 14.9078 12.3738C15.3917 12.8358 15.4022 13.5956 14.9316 14.0707L10.6539 18.3902C10.4237 18.6226 10.1079 18.7547 9.77778 18.7547C9.44766 18.7547 9.13181 18.6226 8.90169 18.3902L7.06836 16.5398C6.59794 16.0648 6.60863 15.305 7.09223 14.843C7.57618 14.381 8.34998 14.3913 8.82053 14.8664L9.77658 15.832L13.1795 12.3973ZM19.5556 6.75469C19.5556 5.34032 18.4289 4.25156 17.1111 4.25156H4.88889C3.57108 4.25156 2.44444 5.34032 2.44444 6.75469V7.09688H19.5556V6.75469ZM22 19.0969C22 21.7726 19.8434 24 17.1111 24H4.88889C2.15661 24 0 21.7726 0 19.0969V6.75469C0 4.57673 1.42875 2.69506 3.43392 2.0707V1.2C3.43392 0.537258 3.98113 0 4.65614 0C5.33113 2.99955e-05 5.87836 0.537277 5.87836 1.2V1.85156H15.8889V1.2C15.8889 0.537258 16.4361 0 17.1111 0C17.7861 0 18.3333 0.537258 18.3333 1.2V2.00391C20.4598 2.55078 22 4.49331 22 6.75469V19.0969Z" fill="#CFCFCF"/>
</svg>
