<svg width="19" height="24" viewBox="0 0 19 24" fill="none" xmlns="http://www.w3.org/2000/svg">
<path d="M16.7682 9.48574C16.768 5.4777 13.5133 2.22861 9.49946 2.22861C5.48575 2.22882 2.23204 5.47783 2.23183 9.48574C2.23183 10.6215 2.66524 11.9457 3.41204 13.3543C4.15123 14.7485 5.15028 16.1388 6.17132 17.3849C7.18935 18.6274 8.21054 19.7041 8.97855 20.471C9.1693 20.6615 9.34475 20.8321 9.49946 20.9814C9.65421 20.8321 9.82951 20.6616 10.0204 20.471C10.7884 19.7041 11.8106 18.6275 12.8287 17.3849C13.8497 16.1388 14.8488 14.7484 15.588 13.3543C16.3347 11.9457 16.7682 10.6215 16.7682 9.48574ZM11.0622 9.13752C11.0622 8.27606 10.3632 7.57725 9.50054 7.57706C8.63772 7.57706 7.93783 8.27594 7.93783 9.13752C7.93785 9.99908 8.63774 10.698 9.50054 10.698C10.3632 10.6978 11.0621 9.99896 11.0622 9.13752ZM19 9.48574C19 11.1404 18.3855 12.8404 17.5604 14.3967C16.7277 15.9674 15.6308 17.4844 14.556 18.7963C13.4783 20.1116 12.4033 21.2439 11.5994 22.0467C11.1969 22.4486 10.86 22.7696 10.623 22.9912C10.5044 23.1021 10.4101 23.189 10.3451 23.2481C10.3128 23.2774 10.2874 23.2998 10.2699 23.3155C10.2611 23.3234 10.2541 23.3297 10.2492 23.334L10.2416 23.3416L9.49946 24L8.75842 23.3416L8.75624 23.3395C8.75481 23.3382 8.75213 23.3362 8.7497 23.334C8.74485 23.3297 8.73764 23.3233 8.72899 23.3155C8.71145 23.2998 8.68603 23.2774 8.6538 23.2481C8.58884 23.189 8.49555 23.1021 8.377 22.9912C8.13998 22.7696 7.80316 22.4487 7.40057 22.0467C6.59665 21.2439 5.52181 20.1116 4.44405 18.7963C3.36915 17.4844 2.27236 15.9675 1.43958 14.3967C0.614433 12.8403 0 11.1405 0 9.48574C0.000209202 4.247 4.25314 0.000210139 9.49946 0C14.7459 0 18.9998 4.24687 19 9.48574ZM13.294 9.13752C13.294 11.2298 11.5958 12.9264 9.50054 12.9266C7.40513 12.9266 5.70602 11.2299 5.70599 9.13752C5.70599 7.04511 7.40511 5.34845 9.50054 5.34845C11.5958 5.34864 13.294 7.04523 13.294 9.13752Z" fill="#CFCFCF"/>
</svg>
