<svg width="28" height="24" viewBox="0 0 28 24" fill="none" xmlns="http://www.w3.org/2000/svg">
<path d="M14.0007 15.9196C20.7812 15.9197 25.5388 18.1568 27.7955 21.8617C28.2027 22.5303 27.9829 23.3977 27.304 23.7987C26.6248 24.1995 25.7437 23.9831 25.3363 23.3148C23.7914 20.7782 20.2178 18.7433 14.0007 18.7431C7.78324 18.7431 4.20861 20.7781 2.6637 23.3148C2.25627 23.9831 1.3751 24.1995 0.696004 23.7987C0.0171948 23.3976 -0.202706 22.5302 0.204431 21.8617C2.46123 18.1567 7.2198 15.9196 14.0007 15.9196ZM17.7288 6.49357C17.7285 4.46681 16.0595 2.82385 14.0007 2.82353C11.9416 2.82353 10.2715 4.46661 10.2712 6.49357C10.2712 8.52078 11.9414 10.165 14.0007 10.165C16.0597 10.1647 17.7288 8.52059 17.7288 6.49357ZM20.597 6.49357C20.597 10.08 17.6438 12.9882 14.0007 12.9885C10.3573 12.9885 7.40296 10.0802 7.40296 6.49357C7.40326 2.90722 10.3575 0 14.0007 0C17.6436 0.000320145 20.5967 2.90742 20.597 6.49357Z" fill="#CFCFCF"/>
</svg>
