<svg width="24" height="24" viewBox="0 0 24 24" fill="none" xmlns="http://www.w3.org/2000/svg">
<path d="M20.0168 11.285C20.0167 6.46255 16.1075 2.55321 11.285 2.55321C6.46262 2.55332 2.55332 6.46262 2.55322 11.285C2.55322 16.1075 6.46256 20.0167 11.285 20.0168C16.1076 20.0168 20.0168 16.1076 20.0168 11.285ZM14.5538 10.4684C14.5538 8.6353 13.067 7.1485 11.2339 7.1485C10.529 7.14837 9.95729 6.57686 9.95729 5.8719C9.95756 5.16716 10.5291 4.59542 11.2339 4.59529C14.4771 4.59529 17.107 7.2252 17.107 10.4684C17.1069 11.1732 16.5352 11.7448 15.8304 11.745C15.1255 11.745 14.554 11.1734 14.5538 10.4684ZM22.57 11.285C22.57 13.9709 21.6297 16.436 20.0629 18.3737L23.611 21.8058C24.1177 22.296 24.1311 23.1043 23.6409 23.611C23.1507 24.1177 22.3425 24.1311 21.8357 23.6409L18.2428 20.1652C16.3253 21.6696 13.9113 22.57 11.285 22.57C5.05245 22.5699 0 17.5176 0 11.285C0.000107453 5.05252 5.05252 0.00010745 11.285 0C17.5176 0 22.5699 5.05245 22.57 11.285Z" fill="#CFCFCF"/>
</svg>
