<svg width="24" height="24" viewBox="0 0 24 24" fill="none" xmlns="http://www.w3.org/2000/svg">
<path d="M22 12C22 6.47715 17.5228 2 12 2C6.47715 2 2 6.47715 2 12C2 17.5228 6.47715 22 12 22V24C5.37258 24 0 18.6274 0 12C0 5.37258 5.37258 0 12 0C18.6274 0 24 5.37258 24 12C24 18.6274 18.6274 24 12 24V22C17.5228 22 22 17.5228 22 12Z" fill="black"/>
<path d="M13 12C13 12.5523 12.5523 13 12 13C11.4477 13 11 12.5523 11 12C11 11.4477 11.4477 11 12 11C12.5523 11 13 11.4477 13 12Z" fill="black"/>
<path d="M13 5.2C13 5.64183 12.5523 6 12 6C11.4477 6 11 5.64183 11 5.2V2H13V5.2Z" fill="black"/>
<path d="M18.8 13C18.3582 13 18 12.5523 18 12C18 11.4477 18.3582 11 18.8 11L22 11L22 13L18.8 13Z" fill="black"/>
<path d="M11 18.8C11 18.3582 11.4477 18 12 18C12.5523 18 13 18.3582 13 18.8L13 22L11 22L11 18.8Z" fill="black"/>
<path d="M5.2 11C5.64183 11 6 11.4477 6 12C6 12.5523 5.64183 13 5.2 13L2 13L2 11L5.2 11Z" fill="black"/>
</svg>
