<svg width="22" height="24" viewBox="0 0 22 24" fill="none" xmlns="http://www.w3.org/2000/svg">
<path d="M0 18.5455H2.2V21.8182H5.5V24H0V18.5455ZM19.8 18.5455H22V24H16.5V21.8182H19.8V18.5455ZM5.5 5.45455V18.5455H16.5V5.45455H5.5ZM14.3 14.1818V16.3636H7.7V14.1818H14.3ZM14.3 10.9091V13.0909H7.7V10.9091H14.3ZM14.3 7.63636V9.81818H7.7V7.63636H14.3ZM0 0H5.5V2.18182H2.2V5.45455H0V0ZM19.8 2.18182H16.5V0H22V5.45455H19.8V2.18182ZM18.7 19.6364H17.6V20.7273H4.4V19.6364H3.3V4.36364H4.4V3.27273H17.6V4.36364H18.7V19.6364Z" fill="black"/>
</svg>
