<svg width="24" height="25" viewBox="0 0 24 25" fill="none" xmlns="http://www.w3.org/2000/svg">
<path d="M12.018 24.0361C10.6912 24.0296 9.6155 22.9591 9.6024 21.6325H14.4096C14.4125 21.9537 14.3517 22.2723 14.2305 22.5699C13.9151 23.2932 13.2711 23.8208 12.5 23.988H12.4939H12.4783H12.4663H12.4531H12.4447C12.3042 24.0171 12.1614 24.0332 12.018 24.0361ZM21.6325 20.4306H2.40361V18.027L4.80721 16.8252V10.2153C4.7439 8.51972 5.12682 6.83721 5.91768 5.336C6.70491 3.94373 8.05052 2.95509 9.61442 2.61993V0H14.4216V2.61993C17.5211 3.35784 19.2288 6.05468 19.2288 10.2153V16.8252L21.6325 18.027V20.4306ZM24 9.61442H21.5964C21.4845 6.50644 19.9904 3.61083 17.5223 1.71858L19.2288 0C20.6663 1.11825 21.8277 2.55156 22.6239 4.18948C23.4472 5.88526 23.9154 7.73128 24 9.61442ZM2.40361 9.61442H0C0.0845588 7.73128 0.552805 5.88525 1.37606 4.18948C2.17221 2.55156 3.33374 1.11825 4.77116 0L6.47772 1.71858C4.00935 3.6106 2.5152 6.50634 2.40361 9.61442Z" fill="white"/>
</svg>
