<svg width="176" height="176" viewBox="0 0 176 176" fill="none" xmlns="http://www.w3.org/2000/svg">
<path d="M1 35.6667C1 26.4725 4.65237 17.6549 11.1536 11.1536C17.6549 4.65237 26.4725 1 35.6667 1H139.667C148.861 1 157.678 4.65237 164.18 11.1536C170.681 17.6549 174.333 26.4725 174.333 35.6667V139.667C174.333 148.861 170.681 157.678 164.18 164.18C157.678 170.681 148.861 174.333 139.667 174.333H35.6667C26.4725 174.333 17.6549 170.681 11.1536 164.18C4.65237 157.678 1 148.861 1 139.667V35.6667Z" stroke="#A1ABC0" stroke-width="2" stroke-linecap="round" stroke-linejoin="round"/>
<path d="M57.3334 78.9998C69.2995 78.9998 79 69.2993 79 57.3332C79 45.367 69.2995 35.6665 57.3334 35.6665C45.3672 35.6665 35.6667 45.367 35.6667 57.3332C35.6667 69.2993 45.3672 78.9998 57.3334 78.9998Z" stroke="#A1ABC0" stroke-width="2" stroke-linecap="round" stroke-linejoin="round"/>
<path d="M109.559 93.0493L35.6667 174.334H140.819C149.708 174.334 158.232 170.803 164.517 164.518C170.802 158.233 174.333 149.708 174.333 140.82V139.667C174.333 135.629 172.817 134.077 170.087 131.087L135.16 92.9973C133.532 91.2216 131.552 89.8047 129.346 88.837C127.14 87.8694 124.757 87.3721 122.348 87.377C119.939 87.3819 117.558 87.8888 115.356 88.8655C113.154 89.8421 111.179 91.267 109.559 93.0493V93.0493Z" stroke="#A1ABC0" stroke-width="2" stroke-linecap="round" stroke-linejoin="round"/>
</svg>
